<svg xmlns="http://www.w3.org/2000/svg" viewBox="0 0 64 64">
  <defs>
    <linearGradient id="a" x1="16" y1="14" x2="44" y2="52" gradientUnits="userSpaceOnUse">
      <stop offset="0" stop-color="#ffffff"/>
      <stop offset="0.48" stop-color="#39e7f5"/>
      <stop offset="1" stop-color="#2df8a2"/>
    </linearGradient>
    <linearGradient id="b" x1="34" y1="52" x2="56" y2="14" gradientUnits="userSpaceOnUse">
      <stop offset="0" stop-color="#7c5cff"/>
      <stop offset="1" stop-color="#39e7f5"/>
    </linearGradient>
    <filter id="g" x="-35%" y="-35%" width="170%" height="170%">
      <feGaussianBlur stdDeviation="2.2" result="blur"/>
      <feColorMatrix in="blur" type="matrix" values="0 0 0 0 0.22 0 0 0 0 0.91 0 0 0 0 0.96 0 0 0 0.55 0"/>
      <feBlend in="SourceGraphic"/>
    </filter>
  </defs>
  <rect width="64" height="64" rx="16" fill="#05080a"/>
  <rect x="5" y="5" width="54" height="54" rx="13" fill="#071014" stroke="rgba(255,255,255,0.16)"/>
  <path d="M13 45 32 11l19 34-19 10-19-10Z" fill="none" stroke="#39e7f5" stroke-width="1.1" opacity="0.45"/>
  <path d="M21 49V16h13.2c8.9 0 14.7 5 14.7 12.2S43.1 40.1 34.2 40.1h-6.1V49H21Z" fill="none" stroke="url(#a)" stroke-width="5.7" stroke-linecap="round" stroke-linejoin="round" filter="url(#g)"/>
  <path d="M29 33.5h5.2c4.9 0 7.6-1.9 7.6-5.3s-2.7-5.4-7.6-5.4H29" fill="none" stroke="#f8fbff" stroke-width="3.2" stroke-linecap="round"/>
  <path d="M35.5 49 47.8 16 59.8 49M41.5 38.5h12.3" fill="none" stroke="url(#b)" stroke-width="5.2" stroke-linecap="round" stroke-linejoin="round" filter="url(#g)"/>
  <circle cx="32" cy="11" r="2.3" fill="#39e7f5"/>
  <circle cx="51" cy="45" r="2.2" fill="#2df8a2"/>
</svg>
