<svg xmlns="http://www.w3.org/2000/svg" viewBox="0 0 96 96" role="img" aria-labelledby="title desc">
  <title id="title">PersonaleArtificiale brand mark</title>
  <desc id="desc">Monogramma PA futuristico con orbita neurale.</desc>
  <defs>
    <linearGradient id="pa-bg" x1="10" y1="6" x2="88" y2="92" gradientUnits="userSpaceOnUse">
      <stop offset="0" stop-color="#102027"/>
      <stop offset="0.48" stop-color="#05080a"/>
      <stop offset="1" stop-color="#07120d"/>
    </linearGradient>
    <linearGradient id="pa-a" x1="24" y1="22" x2="68" y2="76" gradientUnits="userSpaceOnUse">
      <stop offset="0" stop-color="#ffffff"/>
      <stop offset="0.46" stop-color="#39e7f5"/>
      <stop offset="1" stop-color="#2df8a2"/>
    </linearGradient>
    <linearGradient id="pa-b" x1="50" y1="78" x2="84" y2="24" gradientUnits="userSpaceOnUse">
      <stop offset="0" stop-color="#7c5cff"/>
      <stop offset="1" stop-color="#39e7f5"/>
    </linearGradient>
    <linearGradient id="pa-orbit" x1="19" y1="15" x2="78" y2="84" gradientUnits="userSpaceOnUse">
      <stop offset="0" stop-color="#39e7f5"/>
      <stop offset="0.52" stop-color="#ffffff" stop-opacity="0.48"/>
      <stop offset="1" stop-color="#2df8a2"/>
    </linearGradient>
    <filter id="pa-glow" x="-35%" y="-35%" width="170%" height="170%" color-interpolation-filters="sRGB">
      <feGaussianBlur stdDeviation="3.4" result="blur"/>
      <feColorMatrix in="blur" type="matrix" values="0 0 0 0 0.22 0 0 0 0 0.91 0 0 0 0 0.96 0 0 0 0.54 0"/>
      <feBlend in="SourceGraphic"/>
    </filter>
  </defs>
  <rect width="96" height="96" rx="24" fill="#05080a"/>
  <rect x="7" y="7" width="82" height="82" rx="21" fill="url(#pa-bg)" stroke="rgba(255,255,255,0.15)" stroke-width="1.4"/>
  <path d="M18 67.5 48 14l30 53.5L48 83 18 67.5Z" fill="none" stroke="url(#pa-orbit)" stroke-width="1.7" opacity="0.46"/>
  <path d="M31 73V24h19.2c13 0 21.6 7.3 21.6 18.1 0 10.5-8.6 17.8-21.6 17.8h-8.9V73H31Z" fill="none" stroke="url(#pa-a)" stroke-width="8.2" stroke-linecap="round" stroke-linejoin="round" filter="url(#pa-glow)"/>
  <path d="M42.8 50.4h7.6c7.1 0 11.1-2.9 11.1-8.1 0-5-4-8-11.1-8h-7.6" fill="none" stroke="#f8fbff" stroke-width="4.6" stroke-linecap="round" opacity="0.92"/>
  <path d="M52.3 73 70.2 24 87.8 73M61.2 57.1h18" fill="none" stroke="url(#pa-b)" stroke-width="7.6" stroke-linecap="round" stroke-linejoin="round" filter="url(#pa-glow)"/>
  <path d="M34 73h49" fill="none" stroke="rgba(255,255,255,0.24)" stroke-width="1.35" stroke-linecap="round"/>
  <circle cx="48" cy="14" r="3.6" fill="#39e7f5"/>
  <circle cx="78" cy="67.5" r="3.3" fill="#2df8a2"/>
  <circle cx="31" cy="73" r="3.3" fill="#f8fbff"/>
</svg>
