<svg xmlns="http://www.w3.org/2000/svg" viewBox="0 0 64 64">
  <defs>
    <linearGradient id="g" x1="10" y1="8" x2="54" y2="58" gradientUnits="userSpaceOnUse">
      <stop offset="0" stop-color="#f8fbff"/>
      <stop offset="0.45" stop-color="#39e7f5"/>
      <stop offset="1" stop-color="#2df8a2"/>
    </linearGradient>
    <linearGradient id="h" x1="18" y1="56" x2="56" y2="12" gradientUnits="userSpaceOnUse">
      <stop offset="0" stop-color="#7c5cff"/>
      <stop offset="1" stop-color="#39e7f5"/>
    </linearGradient>
  </defs>
  <rect width="64" height="64" rx="16" fill="#050506"/>
  <rect x="5" y="5" width="54" height="54" rx="13" fill="#0b0d10" stroke="rgba(255,255,255,0.16)"/>
  <path d="M17 48V16h14c8 0 13 4.5 13 11.2S39 38.4 31 38.4h-7.2V48H17Zm6.8-15.4h6.8c4 0 6.7-2 6.7-5.4 0-3.3-2.7-5.4-6.7-5.4h-6.8v10.8Z" fill="url(#g)"/>
  <path d="M33.5 48 44.8 16H50l12 32h-7.2l-2.1-6.3h-10L40.6 48h-7.1Zm11.1-12.4h6.2l-3.1-9.7-3.1 9.7Z" fill="url(#h)"/>
  <circle cx="45" cy="16" r="2.2" fill="#39e7f5"/>
  <circle cx="54" cy="48" r="2.2" fill="#2df8a2"/>
</svg>
